<?xml version="1.0" standalone="no"?>
<!DOCTYPE svg PUBLIC "-//W3C//DTD SVG 20010904//EN"
 "http://www.w3.org/TR/2001/REC-SVG-20010904/DTD/svg10.dtd">
<svg version="1.0" xmlns="http://www.w3.org/2000/svg"
 width="110.000000pt" height="60.000000pt" viewBox="0 0 110.000000 60.000000"
 preserveAspectRatio="xMidYMid meet">

<g transform="translate(0.000000,60.000000) scale(0.100000,-0.100000)"
fill="#000000" stroke="none">
<path d="M195 484 c-40 -21 -73 -53 -93 -89 -12 -23 -17 -67 -20 -187 -4 -171
-4 -172 49 -141 l29 17 0 134 c0 146 7 170 61 198 35 18 72 18 107 0 26 -13
28 -12 43 20 l16 33 -39 16 c-49 19 -115 19 -153 -1z"/>
<path d="M459 477 c-47 -31 -69 -80 -69 -150 0 -51 -4 -61 -33 -93 -29 -31
-39 -36 -95 -41 l-62 -6 0 -33 0 -34 57 0 c119 0 203 78 203 187 0 109 65 159
125 98 24 -23 25 -29 25 -155 l0 -130 34 0 34 0 4 136 c3 129 4 137 27 155 32
26 67 24 96 -6 24 -23 25 -29 25 -155 l0 -130 35 0 35 0 0 130 c0 142 -9 178
-53 219 -38 35 -114 40 -162 12 l-36 -21 -37 20 c-50 27 -110 26 -153 -3z"/>
<path d="M961 176 c-9 -11 -10 -20 -1 -35 13 -26 46 -27 59 -3 20 38 -31 71
-58 38z"/>
</g>
</svg>
